<?xml version="1.0" encoding="UTF-8"?>
<!DOCTYPE svg PUBLIC "-//W3C//DTD SVG 1.1//EN" "http://www.w3.org/Graphics/SVG/1.1/DTD/svg11.dtd">
<svg xmlns="http://www.w3.org/2000/svg" version="1.1" width="920px" height="761px" style="shape-rendering:geometricPrecision; text-rendering:geometricPrecision; image-rendering:optimizeQuality; fill-rule:evenodd; clip-rule:evenodd" xmlns:xlink="http://www.w3.org/1999/xlink">
<g><path style="opacity:0.683" fill="#933efe" d="M 205.5,100.5 C 187.167,99.1667 168.833,99.1667 150.5,100.5C 150.33,99.1779 150.663,98.0113 151.5,97C 169.167,96.3333 186.833,96.3333 204.5,97C 205.337,98.0113 205.67,99.1779 205.5,100.5 Z"/></g>
<g><path style="opacity:0.719" fill="#933dfe" d="M 719.5,99.5 C 603.763,99.1688 488.096,99.5021 372.5,100.5C 372.33,99.1779 372.663,98.0113 373.5,97C 485.167,96.3333 596.833,96.3333 708.5,97C 712.392,97.4188 716.058,98.2521 719.5,99.5 Z"/></g>
<g><path style="opacity:0.944" fill="#953ffe" d="M 205.5,100.5 C 205.5,101.833 205.5,103.167 205.5,104.5C 187.167,104.5 168.833,104.5 150.5,104.5C 150.5,103.167 150.5,101.833 150.5,100.5C 168.833,99.1667 187.167,99.1667 205.5,100.5 Z"/></g>
<g><path style="opacity:0.984" fill="#953ffe" d="M 719.5,99.5 C 726.356,99.9379 733.023,101.271 739.5,103.5C 617.334,104.5 495.001,104.833 372.5,104.5C 372.5,103.167 372.5,101.833 372.5,100.5C 488.096,99.5021 603.763,99.1688 719.5,99.5 Z"/></g>
<g><path style="opacity:0.988" fill="#9742ff" d="M 739.5,103.5 C 756.774,107.809 772.774,114.809 787.5,124.5C 649.167,124.5 510.833,124.5 372.5,124.5C 372.5,117.833 372.5,111.167 372.5,104.5C 495.001,104.833 617.334,104.5 739.5,103.5 Z"/></g>
<g><path style="opacity:0.931" fill="#9742ff" d="M 150.5,104.5 C 168.833,104.5 187.167,104.5 205.5,104.5C 205.5,111.5 205.5,118.5 205.5,125.5C 187.167,124.167 168.833,124.167 150.5,125.5C 150.5,118.5 150.5,111.5 150.5,104.5 Z"/></g>
<g><path style="opacity:0.93" fill="#9b45ff" d="M 205.5,125.5 C 205.5,128.5 205.5,131.5 205.5,134.5C 187.167,133.167 168.833,133.167 150.5,134.5C 150.5,131.5 150.5,128.5 150.5,125.5C 168.833,124.167 187.167,124.167 205.5,125.5 Z"/></g>
<g><path style="opacity:0.991" fill="#9b45ff" d="M 372.5,124.5 C 510.833,124.5 649.167,124.5 787.5,124.5C 792.368,126.382 796.701,129.048 800.5,132.5C 657.961,133.17 515.294,133.836 372.5,134.5C 372.5,131.167 372.5,127.833 372.5,124.5 Z"/></g>
<g><path style="opacity:0.993" fill="#9f48ff" d="M 800.5,132.5 C 811.661,139.759 821.661,148.426 830.5,158.5C 677.903,159.498 525.237,159.832 372.5,159.5C 372.5,151.167 372.5,142.833 372.5,134.5C 515.294,133.836 657.961,133.17 800.5,132.5 Z"/></g>
<g><path style="opacity:0.888" fill="#9f48ff" d="M 205.5,134.5 C 205.5,138.833 205.5,143.167 205.5,147.5C 230.833,147.5 256.167,147.5 281.5,147.5C 281.5,151.5 281.5,155.5 281.5,159.5C 255.167,159.5 228.833,159.5 202.5,159.5C 202.5,156.167 202.5,152.833 202.5,149.5C 185.167,149.5 167.833,149.5 150.5,149.5C 150.5,144.5 150.5,139.5 150.5,134.5C 168.833,133.167 187.167,133.167 205.5,134.5 Z"/></g>
<g><path style="opacity:0.992" fill="#a24aff" d="M 830.5,158.5 C 832.5,159.833 834.167,161.5 835.5,163.5C 681.167,163.5 526.833,163.5 372.5,163.5C 372.5,162.167 372.5,160.833 372.5,159.5C 525.237,159.832 677.903,159.498 830.5,158.5 Z"/></g>
<g><path style="opacity:0.976" fill="#a24aff" d="M 202.5,159.5 C 228.833,159.5 255.167,159.5 281.5,159.5C 281.5,160.833 281.5,162.167 281.5,163.5C 255.167,163.5 228.833,163.5 202.5,163.5C 202.5,162.167 202.5,160.833 202.5,159.5 Z"/></g>
<g><path style="opacity:0.976" fill="#a64bff" d="M 202.5,163.5 C 228.833,163.5 255.167,163.5 281.5,163.5C 281.5,171.833 281.5,180.167 281.5,188.5C 255.167,188.5 228.833,188.5 202.5,188.5C 202.5,180.167 202.5,171.833 202.5,163.5 Z"/></g>
<g><path style="opacity:0.994" fill="#a64bff" d="M 372.5,163.5 C 526.833,163.5 681.167,163.5 835.5,163.5C 841.975,171.104 847.975,179.104 853.5,187.5C 693.334,188.5 533.001,188.833 372.5,188.5C 372.5,180.167 372.5,171.833 372.5,163.5 Z"/></g>
<g><path style="opacity:0.969" fill="#a94bff" d="M 853.5,187.5 C 856,190.494 858,193.827 859.5,197.5C 811.5,197.5 763.5,197.5 715.5,197.5C 701.973,190.558 688.639,190.891 675.5,198.5C 557.335,197.5 439.001,197.167 320.5,197.5C 320.5,194.833 320.5,192.167 320.5,189.5C 338.008,189.83 355.341,189.497 372.5,188.5C 533.001,188.833 693.334,188.5 853.5,187.5 Z"/></g>
<g><path style="opacity:0.976" fill="#a94bff" d="M 202.5,188.5 C 228.833,188.5 255.167,188.5 281.5,188.5C 281.5,191.5 281.5,194.5 281.5,197.5C 255.167,197.5 228.833,197.5 202.5,197.5C 202.5,194.5 202.5,191.5 202.5,188.5 Z"/></g>
<g><path style="opacity:0.918" fill="#ab49fd" d="M 202.5,197.5 C 228.833,197.5 255.167,197.5 281.5,197.5C 281.832,207.19 281.498,216.856 280.5,226.5C 267.71,227.158 254.877,227.491 242,227.5C 229.123,227.491 216.29,227.158 203.5,226.5C 202.502,216.856 202.168,207.19 202.5,197.5 Z"/></g>
<g><path style="opacity:0.994" fill="#ac48fd" d="M 320.5,197.5 C 439.001,197.167 557.335,197.5 675.5,198.5C 666.261,205.681 661.261,215.181 660.5,227C 661.287,230.455 661.954,233.955 662.5,237.5C 548.541,236.504 434.541,236.171 320.5,236.5C 320.5,223.5 320.5,210.5 320.5,197.5 Z"/></g>
<g><path style="opacity:0.979" fill="#ac48fd" d="M 715.5,197.5 C 763.5,197.5 811.5,197.5 859.5,197.5C 867.036,209.583 872.703,222.583 876.5,236.5C 827.761,236.172 779.095,236.505 730.5,237.5C 733.751,220.903 728.751,207.569 715.5,197.5 Z"/></g>
<g><path style="opacity:0.788" fill="#ae46fd" d="M 138.5,236.5 C 119.12,236.191 99.7871,236.525 80.5,237.5C 80.2436,235.208 80.5769,233.041 81.5,231C 100.167,230.333 118.833,230.333 137.5,231C 138.406,232.699 138.739,234.533 138.5,236.5 Z"/></g>
<g><path style="opacity:0.96" fill="#af45fc" d="M 138.5,236.5 C 138.5,239.833 138.5,243.167 138.5,246.5C 119.12,246.809 99.7871,246.475 80.5,245.5C 80.5,242.833 80.5,240.167 80.5,237.5C 99.7871,236.525 119.12,236.191 138.5,236.5 Z"/></g>
<g><path style="opacity:0.994" fill="#af45fc" d="M 320.5,236.5 C 434.541,236.171 548.541,236.504 662.5,237.5C 664.06,239.954 665.06,242.62 665.5,245.5C 550.57,246.498 435.57,246.831 320.5,246.5C 320.5,243.167 320.5,239.833 320.5,236.5 Z"/></g>
<g><path style="opacity:0.982" fill="#af45fc" d="M 876.5,236.5 C 877.696,239.421 878.696,242.421 879.5,245.5C 828.669,246.499 777.669,246.832 726.5,246.5C 727.075,243.088 728.408,240.088 730.5,237.5C 779.095,236.505 827.761,236.172 876.5,236.5 Z"/></g>
<g><path style="opacity:0.955" fill="#b141fb" d="M 80.5,245.5 C 99.7871,246.475 119.12,246.809 138.5,246.5C 138.5,256.167 138.5,265.833 138.5,275.5C 119.167,275.5 99.8333,275.5 80.5,275.5C 80.5,265.5 80.5,255.5 80.5,245.5 Z"/></g>
<g><path style="opacity:0.964" fill="#b141fb" d="M 665.5,245.5 C 678.876,263.456 695.543,267.289 715.5,257C 719.695,253.97 723.361,250.47 726.5,246.5C 777.669,246.832 828.669,246.499 879.5,245.5C 883.245,255.179 886.245,265.179 888.5,275.5C 855.833,275.5 823.167,275.5 790.5,275.5C 781.039,256.773 766.039,249.939 745.5,255C 736.007,259.327 729.007,266.16 724.5,275.5C 706.5,275.5 688.5,275.5 670.5,275.5C 661.383,257.111 646.716,250.278 626.5,255C 616.318,258.683 609.318,265.516 605.5,275.5C 527.833,275.5 450.167,275.5 372.5,275.5C 372.5,267.167 372.5,258.833 372.5,250.5C 355.167,250.5 337.833,250.5 320.5,250.5C 320.5,249.167 320.5,247.833 320.5,246.5C 435.57,246.831 550.57,246.498 665.5,245.5 Z"/></g>
<g><path style="opacity:0.899" fill="#b23ffa" d="M 269.5,275.5 C 229.833,275.5 190.167,275.5 150.5,275.5C 150.203,271.233 150.536,267.066 151.5,263C 190.832,262.5 230.165,262.333 269.5,262.5C 269.5,266.833 269.5,271.167 269.5,275.5 Z"/></g>
<g><path style="opacity:0.955" fill="#b33dfa" d="M 80.5,275.5 C 99.8333,275.5 119.167,275.5 138.5,275.5C 138.5,278.167 138.5,280.833 138.5,283.5C 119.167,283.5 99.8333,283.5 80.5,283.5C 80.5,280.833 80.5,278.167 80.5,275.5 Z"/></g>
<g><path style="opacity:0.981" fill="#b33dfa" d="M 150.5,275.5 C 190.167,275.5 229.833,275.5 269.5,275.5C 269.5,278.167 269.5,280.833 269.5,283.5C 229.833,283.5 190.167,283.5 150.5,283.5C 150.5,280.833 150.5,278.167 150.5,275.5 Z"/></g>
<g><path style="opacity:0.988" fill="#b33dfa" d="M 372.5,275.5 C 450.167,275.5 527.833,275.5 605.5,275.5C 604.226,277.993 603.56,280.659 603.5,283.5C 526.5,283.5 449.5,283.5 372.5,283.5C 372.5,280.833 372.5,278.167 372.5,275.5 Z"/></g>
<g><path style="opacity:0.947" fill="#b33dfa" d="M 670.5,275.5 C 688.5,275.5 706.5,275.5 724.5,275.5C 723.612,278.054 723.279,280.721 723.5,283.5C 706.5,283.5 689.5,283.5 672.5,283.5C 672.142,280.733 671.475,278.067 670.5,275.5 Z"/></g>
<g><path style="opacity:0.976" fill="#b33dfa" d="M 790.5,275.5 C 823.167,275.5 855.833,275.5 888.5,275.5C 889.043,278.218 889.709,280.885 890.5,283.5C 857.833,283.5 825.167,283.5 792.5,283.5C 792.142,280.733 791.475,278.067 790.5,275.5 Z"/></g>
<g><path style="opacity:0.823" fill="#b43cf9" d="M 80.5,283.5 C 99.8333,283.5 119.167,283.5 138.5,283.5C 138.5,284.833 138.5,286.167 138.5,287.5C 119.167,287.5 99.8333,287.5 80.5,287.5C 80.5,286.167 80.5,284.833 80.5,283.5 Z"/></g>
<g><path style="opacity:0.979" fill="#b43bf9" d="M 150.5,283.5 C 190.167,283.5 229.833,283.5 269.5,283.5C 269.5,287.167 269.5,290.833 269.5,294.5C 229.833,293.167 190.167,293.167 150.5,294.5C 150.5,290.833 150.5,287.167 150.5,283.5 Z"/></g>
<g><path style="opacity:0.988" fill="#b43bf9" d="M 372.5,283.5 C 449.5,283.5 526.5,283.5 603.5,283.5C 602.167,286.833 602.167,290.167 603.5,293.5C 526.607,293.171 449.607,293.504 372.5,294.5C 372.5,290.833 372.5,287.167 372.5,283.5 Z"/></g>
<g><path style="opacity:0.94" fill="#b43bf9" d="M 672.5,283.5 C 689.5,283.5 706.5,283.5 723.5,283.5C 722.167,286.833 722.167,290.167 723.5,293.5C 706.5,293.5 689.5,293.5 672.5,293.5C 673.833,290.167 673.833,286.833 672.5,283.5 Z"/></g>
<g><path style="opacity:0.975" fill="#b43bf9" d="M 792.5,283.5 C 825.167,283.5 857.833,283.5 890.5,283.5C 891.167,286.833 891.833,290.167 892.5,293.5C 891.883,293.611 891.383,293.944 891,294.5C 858.167,293.83 825.333,293.163 792.5,292.5C 793.678,289.523 793.678,286.523 792.5,283.5 Z"/></g>
<g><path style="opacity:0.973" fill="#b639f8" d="M 792.5,292.5 C 825.333,293.163 858.167,293.83 891,294.5C 891.383,293.944 891.883,293.611 892.5,293.5C 892.993,295.806 893.326,298.139 893.5,300.5C 859.5,300.5 825.5,300.5 791.5,300.5C 791.575,297.794 791.908,295.127 792.5,292.5 Z"/></g>
<g><path style="opacity:0.984" fill="#b639f8" d="M 269.5,294.5 C 269.5,296.5 269.5,298.5 269.5,300.5C 229.833,300.5 190.167,300.5 150.5,300.5C 150.5,298.5 150.5,296.5 150.5,294.5C 190.167,293.167 229.833,293.167 269.5,294.5 Z"/></g>
<g><path style="opacity:0.989" fill="#b639f8" d="M 603.5,293.5 C 603.674,295.861 604.007,298.194 604.5,300.5C 527.167,300.5 449.833,300.5 372.5,300.5C 372.5,298.5 372.5,296.5 372.5,294.5C 449.607,293.504 526.607,293.171 603.5,293.5 Z"/></g>
<g><path style="opacity:0.949" fill="#b639f8" d="M 672.5,293.5 C 689.5,293.5 706.5,293.5 723.5,293.5C 723.5,295.833 723.5,298.167 723.5,300.5C 706.167,300.5 688.833,300.5 671.5,300.5C 671.674,298.139 672.007,295.806 672.5,293.5 Z"/></g>
<g><path style="opacity:0.915" fill="#b835f7" d="M 62.5,328.5 C 48.1667,328.5 33.8333,328.5 19.5,328.5C 19.3336,319.494 19.5002,310.494 20,301.5C 26.9232,300.842 33.9232,300.509 41,300.5C 48.0768,300.509 55.0768,300.842 62,301.5C 62.4998,310.494 62.6664,319.494 62.5,328.5 Z"/></g>
<g><path style="opacity:0.981" fill="#b835f7" d="M 150.5,300.5 C 190.167,300.5 229.833,300.5 269.5,300.5C 269.5,309.833 269.5,319.167 269.5,328.5C 229.833,328.5 190.167,328.5 150.5,328.5C 150.5,319.167 150.5,309.833 150.5,300.5 Z"/></g>
<g><path style="opacity:0.949" fill="#b835f7" d="M 372.5,300.5 C 449.833,300.5 527.167,300.5 604.5,300.5C 613.392,319.943 628.392,327.11 649.5,322C 659.993,318.007 667.326,310.84 671.5,300.5C 688.833,300.5 706.167,300.5 723.5,300.5C 736.358,323.941 754.691,329.441 778.5,317C 784.18,312.429 788.513,306.929 791.5,300.5C 825.5,300.5 859.5,300.5 893.5,300.5C 895.588,309.759 896.921,319.093 897.5,328.5C 840.664,328.168 783.998,328.501 727.5,329.5C 714.377,311.52 697.71,307.353 677.5,317C 672.623,320.376 668.623,324.543 665.5,329.5C 591.208,328.506 516.875,328.173 442.5,328.5C 442.5,323.833 442.5,319.167 442.5,314.5C 420.167,314.5 397.833,314.5 375.5,314.5C 375.5,319.167 375.5,323.833 375.5,328.5C 357.167,328.5 338.833,328.5 320.5,328.5C 320.193,322.907 320.527,317.407 321.5,312C 338.497,311.5 355.497,311.333 372.5,311.5C 372.5,307.833 372.5,304.167 372.5,300.5 Z"/></g>
<g><path style="opacity:0.884" fill="#ba2ff5" d="M 19.5,328.5 C 33.8333,328.5 48.1667,328.5 62.5,328.5C 62.8025,333.43 62.4692,338.263 61.5,343C 47.8333,343.667 34.1667,343.667 20.5,343C 19.5308,338.263 19.1975,333.43 19.5,328.5 Z"/></g>
<g><path style="opacity:0.98" fill="#ba2ff5" d="M 150.5,328.5 C 190.167,328.5 229.833,328.5 269.5,328.5C 269.5,333.167 269.5,337.833 269.5,342.5C 229.761,342.173 190.094,342.506 150.5,343.5C 150.5,338.5 150.5,333.5 150.5,328.5 Z"/></g>
<g><path style="opacity:0.954" fill="#ba2ff5" d="M 320.5,328.5 C 338.833,328.5 357.167,328.5 375.5,328.5C 375.5,333.5 375.5,338.5 375.5,343.5C 357.243,342.514 338.91,342.18 320.5,342.5C 320.5,337.833 320.5,333.167 320.5,328.5 Z"/></g>
<g><path style="opacity:0.988" fill="#ba2ff5" d="M 442.5,328.5 C 516.875,328.173 591.208,328.506 665.5,329.5C 663.768,333.697 662.435,338.031 661.5,342.5C 588.5,342.5 515.5,342.5 442.5,342.5C 442.5,337.833 442.5,333.167 442.5,328.5 Z"/></g>
<g><path style="opacity:0.985" fill="#ba2ff5" d="M 897.5,328.5 C 897.998,333.152 898.331,337.819 898.5,342.5C 842.833,342.5 787.167,342.5 731.5,342.5C 730.198,338.255 728.865,333.922 727.5,329.5C 783.998,328.501 840.664,328.168 897.5,328.5 Z"/></g>
<g><path style="opacity:0.982" fill="#bc2cf4" d="M 269.5,342.5 C 269.5,346.5 269.5,350.5 269.5,354.5C 229.833,354.5 190.167,354.5 150.5,354.5C 150.5,350.833 150.5,347.167 150.5,343.5C 190.094,342.506 229.761,342.173 269.5,342.5 Z"/></g>
<g><path style="opacity:0.957" fill="#bc2cf4" d="M 320.5,342.5 C 338.91,342.18 357.243,342.514 375.5,343.5C 375.5,347.167 375.5,350.833 375.5,354.5C 357.167,354.5 338.833,354.5 320.5,354.5C 320.5,350.5 320.5,346.5 320.5,342.5 Z"/></g>
<g><path style="opacity:0.988" fill="#bc2cf4" d="M 442.5,342.5 C 515.5,342.5 588.5,342.5 661.5,342.5C 660.757,346.423 660.757,350.423 661.5,354.5C 588.5,354.5 515.5,354.5 442.5,354.5C 442.5,350.5 442.5,346.5 442.5,342.5 Z"/></g>
<g><path style="opacity:0.985" fill="#bc2cf4" d="M 731.5,342.5 C 787.167,342.5 842.833,342.5 898.5,342.5C 899.43,346.4 899.763,350.4 899.5,354.5C 843.167,354.5 786.833,354.5 730.5,354.5C 731.272,350.548 731.605,346.548 731.5,342.5 Z"/></g>
<g><path style="opacity:0.959" fill="#be28f2" d="M 150.5,354.5 C 190.167,354.5 229.833,354.5 269.5,354.5C 269.5,362.833 269.5,371.167 269.5,379.5C 286.5,379.5 303.5,379.5 320.5,379.5C 320.5,371.167 320.5,362.833 320.5,354.5C 338.833,354.5 357.167,354.5 375.5,354.5C 375.5,362.833 375.5,371.167 375.5,379.5C 397.833,379.5 420.167,379.5 442.5,379.5C 442.5,371.167 442.5,362.833 442.5,354.5C 515.5,354.5 588.5,354.5 661.5,354.5C 664.828,366.499 672.161,375.166 683.5,380.5C 544.903,381.498 406.237,381.832 267.5,381.5C 228.832,381.667 190.165,381.5 151.5,381C 150.516,372.251 150.183,363.418 150.5,354.5 Z"/></g>
<g><path style="opacity:0.983" fill="#be28f2" d="M 730.5,354.5 C 786.833,354.5 843.167,354.5 899.5,354.5C 900.347,363.472 900.68,372.472 900.5,381.5C 836.664,381.832 772.998,381.499 709.5,380.5C 720.189,374.811 727.189,366.144 730.5,354.5 Z"/></g>
<g><path style="opacity:0.891" fill="#bf27f1" d="M 138.5,381.5 C 115.092,381.823 91.7584,381.489 68.5,380.5C 68.219,375.435 68.5524,370.435 69.5,365.5C 92.1593,364.334 114.826,364.167 137.5,365C 138.473,370.407 138.807,375.907 138.5,381.5 Z"/></g>
<g><path style="opacity:0.954" fill="#c124f0" d="M 68.5,380.5 C 91.7584,381.489 115.092,381.823 138.5,381.5C 138.5,384.167 138.5,386.833 138.5,389.5C 115.122,389.187 91.7882,389.52 68.5,390.5C 68.5,387.167 68.5,383.833 68.5,380.5 Z"/></g>
<g><path style="opacity:0.988" fill="#c024f0" d="M 683.5,380.5 C 692.167,381.833 700.833,381.833 709.5,380.5C 772.998,381.499 836.664,381.832 900.5,381.5C 900.5,384.167 900.5,386.833 900.5,389.5C 689.5,389.5 478.5,389.5 267.5,389.5C 267.5,386.833 267.5,384.167 267.5,381.5C 406.237,381.832 544.903,381.498 683.5,380.5 Z"/></g>
<g><path style="opacity:0.959" fill="#c321ee" d="M 138.5,389.5 C 138.5,397.833 138.5,406.167 138.5,414.5C 115.167,414.5 91.8333,414.5 68.5,414.5C 68.5,406.5 68.5,398.5 68.5,390.5C 91.7882,389.52 115.122,389.187 138.5,389.5 Z"/></g>
<g><path style="opacity:0.996" fill="#c321ee" d="M 267.5,389.5 C 478.5,389.5 689.5,389.5 900.5,389.5C 899.833,397.833 899.167,406.167 898.5,414.5C 688.167,414.5 477.833,414.5 267.5,414.5C 267.5,406.167 267.5,397.833 267.5,389.5 Z"/></g>
<g><path style="opacity:0.966" fill="#c41fee" d="M 68.5,414.5 C 91.8333,414.5 115.167,414.5 138.5,414.5C 138.5,415.5 138.5,416.5 138.5,417.5C 115.122,417.813 91.7882,417.48 68.5,416.5C 68.5,415.833 68.5,415.167 68.5,414.5 Z"/></g>
<g><path style="opacity:0.997" fill="#c41fee" d="M 267.5,414.5 C 477.833,414.5 688.167,414.5 898.5,414.5C 898.5,415.5 898.5,416.5 898.5,417.5C 688.097,417.832 477.764,417.499 267.5,416.5C 267.5,415.833 267.5,415.167 267.5,414.5 Z"/></g>
<g><path style="opacity:0.868" fill="#c61eec" d="M 68.5,416.5 C 91.7882,417.48 115.122,417.813 138.5,417.5C 138.807,423.093 138.473,428.593 137.5,434C 114.826,434.833 92.1593,434.666 69.5,433.5C 68.5456,427.896 68.2123,422.229 68.5,416.5 Z"/></g>
<g><path style="opacity:0.983" fill="#c61eec" d="M 267.5,416.5 C 477.764,417.499 688.097,417.832 898.5,417.5C 897.274,423.085 896.607,428.752 896.5,434.5C 780.167,434.5 663.833,434.5 547.5,434.5C 547.5,433.5 547.5,432.5 547.5,431.5C 533.5,431.5 519.5,431.5 505.5,431.5C 505.5,432.5 505.5,433.5 505.5,434.5C 444.458,434.174 383.458,434.508 322.5,435.5C 304.671,434.668 286.671,434.168 268.5,434C 267.525,428.259 267.192,422.425 267.5,416.5 Z"/></g>
<g><path style="opacity:0.983" fill="#ca1ce9" d="M 505.5,434.5 C 504.768,450.612 499.102,464.612 488.5,476.5C 433.125,476.825 377.792,476.492 322.5,475.5C 322.5,462.167 322.5,448.833 322.5,435.5C 383.458,434.508 444.458,434.174 505.5,434.5 Z"/></g>
<g><path style="opacity:0.991" fill="#ca1ce9" d="M 547.5,434.5 C 663.833,434.5 780.167,434.5 896.5,434.5C 894.756,448.896 891.756,462.896 887.5,476.5C 780.5,476.5 673.5,476.5 566.5,476.5C 554.023,465.447 547.689,451.447 547.5,434.5 Z"/></g>
<g><path style="opacity:0.942" fill="#cb1be9" d="M 234.5,475.5 C 202.53,476.827 170.53,476.827 138.5,475.5C 138.18,464.918 138.513,454.418 139.5,444C 171.165,443.5 202.832,443.333 234.5,443.5C 234.5,454.167 234.5,464.833 234.5,475.5 Z"/></g>
<g><path style="opacity:0.969" fill="#cd1ce7" d="M 138.5,475.5 C 170.53,476.827 202.53,476.827 234.5,475.5C 234.5,478.167 234.5,480.833 234.5,483.5C 202.5,483.5 170.5,483.5 138.5,483.5C 138.5,480.833 138.5,478.167 138.5,475.5 Z"/></g>
<g><path style="opacity:0.977" fill="#cd1ce7" d="M 322.5,475.5 C 377.792,476.492 433.125,476.825 488.5,476.5C 486.167,479.5 483.5,482.167 480.5,484.5C 427.875,483.509 375.209,483.175 322.5,483.5C 322.5,480.833 322.5,478.167 322.5,475.5 Z"/></g>
<g><path style="opacity:0.991" fill="#cd1ce7" d="M 566.5,476.5 C 673.5,476.5 780.5,476.5 887.5,476.5C 887.037,479.221 886.371,481.888 885.5,484.5C 782.196,483.169 678.863,483.169 575.5,484.5C 571.88,482.547 568.88,479.881 566.5,476.5 Z"/></g>
<g><path style="opacity:0.973" fill="#d01de5" d="M 138.5,483.5 C 170.5,483.5 202.5,483.5 234.5,483.5C 234.5,492.5 234.5,501.5 234.5,510.5C 202.5,510.5 170.5,510.5 138.5,510.5C 138.5,501.5 138.5,492.5 138.5,483.5 Z"/></g>
<g><path style="opacity:0.942" fill="#d01de5" d="M 322.5,483.5 C 375.209,483.175 427.875,483.509 480.5,484.5C 475.156,489.982 468.822,494.149 461.5,497C 453.716,500.28 445.716,502.947 437.5,505C 420.555,506.905 403.555,507.739 386.5,507.5C 386.737,508.791 386.404,509.791 385.5,510.5C 341.167,510.5 296.833,510.5 252.5,510.5C 252.286,508.856 252.62,507.356 253.5,506C 276.498,505.5 299.498,505.333 322.5,505.5C 322.5,498.167 322.5,490.833 322.5,483.5 Z"/></g>
<g><path style="opacity:0.978" fill="#d01de5" d="M 885.5,484.5 C 883.758,493.472 881.091,502.139 877.5,510.5C 806.833,510.5 736.167,510.5 665.5,510.5C 665.586,509.504 665.252,508.671 664.5,508C 638.896,508.153 614.23,503.486 590.5,494C 584.791,491.76 579.791,488.593 575.5,484.5C 678.863,483.169 782.196,483.169 885.5,484.5 Z"/></g>
<g><path style="opacity:0.973" fill="#d320e2" d="M 138.5,510.5 C 170.5,510.5 202.5,510.5 234.5,510.5C 234.5,513.5 234.5,516.5 234.5,519.5C 202.5,519.5 170.5,519.5 138.5,519.5C 138.5,516.5 138.5,513.5 138.5,510.5 Z"/></g>
<g><path style="opacity:0.976" fill="#d320e2" d="M 252.5,510.5 C 296.833,510.5 341.167,510.5 385.5,510.5C 385.324,513.727 384.657,516.727 383.5,519.5C 339.833,519.5 296.167,519.5 252.5,519.5C 252.5,516.5 252.5,513.5 252.5,510.5 Z"/></g>
<g><path style="opacity:0.987" fill="#d320e2" d="M 665.5,510.5 C 736.167,510.5 806.833,510.5 877.5,510.5C 876.302,513.426 875.302,516.426 874.5,519.5C 805.5,519.5 736.5,519.5 667.5,519.5C 666.833,516.5 666.167,513.5 665.5,510.5 Z"/></g>
<g><path style="opacity:0.973" fill="#d522e1" d="M 138.5,519.5 C 170.5,519.5 202.5,519.5 234.5,519.5C 234.5,524.167 234.5,528.833 234.5,533.5C 202.5,533.5 170.5,533.5 138.5,533.5C 138.5,528.833 138.5,524.167 138.5,519.5 Z"/></g>
<g><path style="opacity:0.98" fill="#d522e1" d="M 252.5,519.5 C 296.167,519.5 339.833,519.5 383.5,519.5C 382.704,524.147 382.037,528.814 381.5,533.5C 338.5,533.5 295.5,533.5 252.5,533.5C 252.5,528.833 252.5,524.167 252.5,519.5 Z"/></g>
<g><path style="opacity:0.984" fill="#d522e1" d="M 667.5,519.5 C 736.5,519.5 805.5,519.5 874.5,519.5C 872.5,524.5 870.5,529.5 868.5,534.5C 802.167,533.833 735.833,533.167 669.5,532.5C 668.291,528.382 667.624,524.049 667.5,519.5 Z"/></g>
<g><path style="opacity:0.986" fill="#d725e0" d="M 669.5,532.5 C 735.833,533.167 802.167,533.833 868.5,534.5C 868.068,535.71 867.401,536.71 866.5,537.5C 800.833,537.5 735.167,537.5 669.5,537.5C 669.5,535.833 669.5,534.167 669.5,532.5 Z"/></g>
<g><path style="opacity:0.725" fill="#d725e0" d="M 138.5,533.5 C 170.5,533.5 202.5,533.5 234.5,533.5C 234.739,535.467 234.406,537.301 233.5,539C 202.161,539.833 170.828,539.667 139.5,538.5C 138.691,536.929 138.357,535.262 138.5,533.5 Z"/></g>
<g><path style="opacity:0.976" fill="#d725e0" d="M 252.5,533.5 C 295.5,533.5 338.5,533.5 381.5,533.5C 381.5,534.833 381.5,536.167 381.5,537.5C 338.428,537.172 295.428,537.506 252.5,538.5C 252.5,536.833 252.5,535.167 252.5,533.5 Z"/></g>
<g><path style="opacity:0.978" fill="#d927df" d="M 381.5,537.5 C 381.167,541.5 380.833,545.5 380.5,549.5C 337.761,549.172 295.094,549.506 252.5,550.5C 252.5,546.5 252.5,542.5 252.5,538.5C 295.428,537.506 338.428,537.172 381.5,537.5 Z"/></g>
<g><path style="opacity:0.986" fill="#d927df" d="M 669.5,537.5 C 735.167,537.5 800.833,537.5 866.5,537.5C 865.215,541.696 863.548,545.696 861.5,549.5C 797.833,549.5 734.167,549.5 670.5,549.5C 669.838,545.534 669.505,541.534 669.5,537.5 Z"/></g>
<g><path style="opacity:0.979" fill="#db29dd" d="M 380.5,549.5 C 380.5,552.833 380.5,556.167 380.5,559.5C 337.863,558.172 295.196,558.172 252.5,559.5C 252.5,556.5 252.5,553.5 252.5,550.5C 295.094,549.506 337.761,549.172 380.5,549.5 Z"/></g>
<g><path style="opacity:0.985" fill="#db29dd" d="M 670.5,549.5 C 734.167,549.5 797.833,549.5 861.5,549.5C 860.002,553.168 858.002,556.502 855.5,559.5C 793.961,558.173 732.294,558.173 670.5,559.5C 670.5,556.167 670.5,552.833 670.5,549.5 Z"/></g>
<g><path style="opacity:0.946" fill="#de2edb" d="M 380.5,559.5 C 380.687,564.845 381.02,570.178 381.5,575.5C 322.5,575.5 263.5,575.5 204.5,575.5C 203.264,573.389 201.764,571.389 200,569.5C 199.316,568.216 199.483,567.049 200.5,566C 217.83,565.5 235.163,565.333 252.5,565.5C 252.5,563.5 252.5,561.5 252.5,559.5C 295.196,558.172 337.863,558.172 380.5,559.5 Z"/></g>
<g><path style="opacity:0.985" fill="#dd2edb" d="M 855.5,559.5 C 852.5,564.833 849.5,570.167 846.5,575.5C 787.5,575.5 728.5,575.5 669.5,575.5C 669.392,570.13 669.725,564.797 670.5,559.5C 732.294,558.173 793.961,558.173 855.5,559.5 Z"/></g>
<g><path style="opacity:0.986" fill="#df31da" d="M 204.5,575.5 C 263.5,575.5 322.5,575.5 381.5,575.5C 381.5,576.5 381.5,577.5 381.5,578.5C 323.167,578.5 264.833,578.5 206.5,578.5C 205.599,577.71 204.932,576.71 204.5,575.5 Z"/></g>
<g><path style="opacity:0.984" fill="#df31da" d="M 669.5,575.5 C 728.5,575.5 787.5,575.5 846.5,575.5C 845.833,576.5 845.167,577.5 844.5,578.5C 786.167,578.5 727.833,578.5 669.5,578.5C 669.5,577.5 669.5,576.5 669.5,575.5 Z"/></g>
<g><path style="opacity:0.977" fill="#df32da" d="M 206.5,578.5 C 264.833,578.5 323.167,578.5 381.5,578.5C 381.5,578.833 381.5,579.167 381.5,579.5C 323.429,579.171 265.429,579.504 207.5,580.5C 206.662,580.158 206.328,579.492 206.5,578.5 Z"/></g>
<g><path style="opacity:0.977" fill="#df32da" d="M 669.5,579.5 C 669.5,579.167 669.5,578.833 669.5,578.5C 727.833,578.5 786.167,578.5 844.5,578.5C 844.167,579.5 843.5,580.167 842.5,580.5C 785.002,579.501 727.336,579.168 669.5,579.5 Z"/></g>
<g><path style="opacity:0.985" fill="#e235d8" d="M 381.5,579.5 C 381.593,585.516 381.926,591.516 382.5,597.5C 328.095,597.171 273.762,597.505 219.5,598.5C 215.017,592.881 211.017,586.881 207.5,580.5C 265.429,579.504 323.429,579.171 381.5,579.5 Z"/></g>
<g><path style="opacity:0.98" fill="#e235d8" d="M 669.5,579.5 C 727.336,579.168 785.002,579.501 842.5,580.5C 838.993,586.852 834.993,592.852 830.5,598.5C 776.264,597.17 721.931,597.17 667.5,598.5C 667.965,592.1 668.632,585.766 669.5,579.5 Z"/></g>
<g><path style="opacity:0.985" fill="#e53bd5" d="M 382.5,597.5 C 383.275,602.797 383.608,608.13 383.5,613.5C 333.003,614.499 282.336,614.832 231.5,614.5C 227.147,609.473 223.147,604.14 219.5,598.5C 273.762,597.505 328.095,597.171 382.5,597.5 Z"/></g>
<g><path style="opacity:0.982" fill="#e53bd5" d="M 830.5,598.5 C 827.461,604.587 823.461,609.921 818.5,614.5C 767.833,614.5 717.167,614.5 666.5,614.5C 667.342,609.213 667.676,603.88 667.5,598.5C 721.931,597.17 776.264,597.17 830.5,598.5 Z"/></g>
<g><path style="opacity:0.973" fill="#e73fd5" d="M 383.5,613.5 C 384.338,613.842 384.672,614.508 384.5,615.5C 333.833,615.5 283.167,615.5 232.5,615.5C 231.833,615.5 231.5,615.167 231.5,614.5C 282.336,614.832 333.003,614.499 383.5,613.5 Z"/></g>
<g><path style="opacity:0.974" fill="#e73fd5" d="M 666.5,615.5 C 666.5,615.167 666.5,614.833 666.5,614.5C 717.167,614.5 767.833,614.5 818.5,614.5C 818.672,615.492 818.338,616.158 817.5,616.5C 767.336,615.501 717.003,615.168 666.5,615.5 Z"/></g>
<g><path style="opacity:0.979" fill="#e941d3" d="M 232.5,615.5 C 283.167,615.5 333.833,615.5 384.5,615.5C 384.5,620.5 384.5,625.5 384.5,630.5C 337.736,629.17 291.069,629.17 244.5,630.5C 239.747,626.083 235.747,621.083 232.5,615.5 Z"/></g>
<g><path style="opacity:0.976" fill="#e941d3" d="M 666.5,615.5 C 717.003,615.168 767.336,615.501 817.5,616.5C 813.963,621.579 809.963,626.246 805.5,630.5C 759.167,629.167 712.833,629.167 666.5,630.5C 666.5,625.5 666.5,620.5 666.5,615.5 Z"/></g>
<g><path style="opacity:0.978" fill="#eb47d1" d="M 384.5,630.5 C 384.5,634.833 384.5,639.167 384.5,643.5C 341.997,643.168 299.663,643.501 257.5,644.5C 252.46,640.461 248.127,635.794 244.5,630.5C 291.069,629.17 337.736,629.17 384.5,630.5 Z"/></g>
<g><path style="opacity:0.976" fill="#eb47d1" d="M 805.5,630.5 C 801.873,635.794 797.54,640.461 792.5,644.5C 750.572,643.506 708.572,643.173 666.5,643.5C 666.5,639.167 666.5,634.833 666.5,630.5C 712.833,629.167 759.167,629.167 805.5,630.5 Z"/></g>
<g><path style="opacity:0.978" fill="#ed4ad0" d="M 384.5,643.5 C 384.5,644.167 384.5,644.833 384.5,645.5C 342.5,645.5 300.5,645.5 258.5,645.5C 257.833,645.5 257.5,645.167 257.5,644.5C 299.663,643.501 341.997,643.168 384.5,643.5 Z"/></g>
<g><path style="opacity:0.977" fill="#ed4ad0" d="M 666.5,643.5 C 708.572,643.173 750.572,643.506 792.5,644.5C 792.5,645.167 792.167,645.5 791.5,645.5C 750.167,645.5 708.833,645.5 667.5,645.5C 666.662,645.158 666.328,644.492 666.5,643.5 Z"/></g>
<g><path style="opacity:0.973" fill="#ee4ccf" d="M 258.5,645.5 C 300.5,645.5 342.5,645.5 384.5,645.5C 383.864,649.675 382.864,653.675 381.5,657.5C 344.931,656.171 308.264,656.171 271.5,657.5C 266.54,654.208 262.207,650.208 258.5,645.5 Z"/></g>
<g><path style="opacity:0.968" fill="#ee4ccf" d="M 667.5,645.5 C 708.833,645.5 750.167,645.5 791.5,645.5C 787.793,650.208 783.46,654.208 778.5,657.5C 741.876,656.513 705.21,656.179 668.5,656.5C 667.656,652.901 667.323,649.234 667.5,645.5 Z"/></g>
<g><path style="opacity:0.968" fill="#f04fce" d="M 381.5,657.5 C 381.706,660.495 381.04,663.162 379.5,665.5C 363.347,664.167 346.847,663.5 330,663.5C 313.5,663.667 297,663.833 280.5,664C 281.056,664.383 281.389,664.883 281.5,665.5C 277.428,663.792 274.095,661.126 271.5,657.5C 308.264,656.171 344.931,656.171 381.5,657.5 Z"/></g>
<g><path style="opacity:0.96" fill="#f04fce" d="M 668.5,656.5 C 705.21,656.179 741.876,656.513 778.5,657.5C 775.48,660.516 772.146,663.183 768.5,665.5C 752.386,664.181 736.053,663.515 719.5,663.5C 703.33,663.5 687.33,663.833 671.5,664.5C 670.129,662.064 669.129,659.397 668.5,656.5 Z"/></g>
<g><path style="opacity:0.966" fill="#f253cc" d="M 379.5,665.5 C 378.618,669.593 376.951,673.26 374.5,676.5C 349.328,676.169 324.328,676.502 299.5,677.5C 293.148,673.993 287.148,669.993 281.5,665.5C 281.389,664.883 281.056,664.383 280.5,664C 297,663.833 313.5,663.667 330,663.5C 346.847,663.5 363.347,664.167 379.5,665.5 Z"/></g>
<g><path style="opacity:0.96" fill="#f253cc" d="M 768.5,665.5 C 762.505,670.503 755.838,674.503 748.5,677.5C 725.167,676.167 701.833,676.167 678.5,677.5C 674.879,673.929 672.546,669.596 671.5,664.5C 687.33,663.833 703.33,663.5 719.5,663.5C 736.053,663.515 752.386,664.181 768.5,665.5 Z"/></g>
<g><path style="opacity:0.936" fill="#f456cb" d="M 374.5,676.5 C 373.557,679.109 371.89,681.109 369.5,682.5C 349.5,681.167 329.5,681.167 309.5,682.5C 305.817,681.325 302.484,679.659 299.5,677.5C 324.328,676.502 349.328,676.169 374.5,676.5 Z"/></g>
<g><path style="opacity:0.931" fill="#f456cb" d="M 748.5,677.5 C 745.632,679.912 742.299,681.579 738.5,682.5C 720.167,681.167 701.833,681.167 683.5,682.5C 680.811,681.811 679.144,680.144 678.5,677.5C 701.833,676.167 725.167,676.167 748.5,677.5 Z"/></g>
<g><path style="opacity:0.783" fill="#f558ca" d="M 369.5,682.5 C 361.796,688.417 352.962,691.417 343,691.5C 331.039,690.95 319.872,687.95 309.5,682.5C 329.5,681.167 349.5,681.167 369.5,682.5 Z"/></g>
<g><path style="opacity:0.764" fill="#f458ca" d="M 738.5,682.5 C 724.271,689.408 709.271,691.241 693.5,688C 689.654,686.914 686.32,685.081 683.5,682.5C 701.833,681.167 720.167,681.167 738.5,682.5 Z"/></g>
</svg>
